<svg xmlns="http://www.w3.org/2000/svg" viewBox="0 0 200 140" width="200" height="140">
  <g stroke="#4a2a12" stroke-width="6" stroke-linejoin="round" stroke-linecap="round">
    <!-- visor / brim -->
    <path d="M28 92 C8 100 12 116 34 116 C90 123 150 112 168 100 C177 94 170 87 156 90 C110 101 60 101 28 92 Z" fill="#e8563a"/>
    <!-- crown -->
    <path d="M38 97 C36 47 66 28 102 28 C150 28 164 66 162 97 C120 107 78 107 38 97 Z" fill="#ff6f52"/>
    <!-- seams -->
    <g fill="none" stroke-width="4">
      <path d="M102 28 C100 60 98 82 96 99"/>
      <path d="M72 34 C82 62 86 82 88 99"/>
      <path d="M132 34 C120 62 114 82 112 99"/>
    </g>
    <!-- top button -->
    <circle cx="102" cy="30" r="8" fill="#e8563a"/>
  </g>
</svg>
